<svg width="34" height="24" viewBox="0 0 34 24" fill="none" xmlns="http://www.w3.org/2000/svg">
<g filter="url(#filter0_d_1_385)">
<g clip-path="url(#clip0_1_385)">
<rect x="4" width="26" height="16" rx="8" fill="white"/>
<rect x="4" width="26" height="16" fill="#848895"/>
<path d="M23.9694 8.02704C23.969 7.60133 23.7997 7.19319 23.4986 6.89217C23.1976 6.59115 22.7895 6.42184 22.3638 6.42139C21.9739 6.42093 21.5975 6.56339 21.3056 6.82182C20.2437 6.14231 18.8268 5.71423 17.2641 5.66795L18.2204 2.39741L20.5682 2.83367C20.5682 2.85286 20.5643 2.87092 20.5654 2.89011C20.5794 3.15874 20.6994 3.41085 20.8991 3.59114C21.0987 3.77143 21.3617 3.86517 21.6304 3.8518C21.899 3.83771 22.151 3.71769 22.3312 3.51805C22.5115 3.31841 22.6052 3.05545 22.5918 2.78683C22.5778 2.51819 22.4578 2.26608 22.2581 2.08579C22.0585 1.90551 21.7955 1.81176 21.5268 1.82513C21.3557 1.83424 21.1896 1.88666 21.0443 1.97748C20.8989 2.06829 20.779 2.19453 20.6958 2.34436L20.6949 2.34407L17.8657 1.81836L16.7389 5.66739C15.1722 5.70887 13.7509 6.13469 12.6845 6.81279C12.3938 6.55988 12.0214 6.42084 11.6362 6.42139C11.2105 6.42192 10.8024 6.59125 10.5014 6.89225C10.2004 7.19326 10.031 7.60135 10.0305 8.02704C10.0305 8.57448 10.3124 9.07959 10.769 9.3742C10.7405 9.53537 10.7258 9.6987 10.7253 9.86238C10.7253 12.1797 13.5347 14.0653 16.9881 14.0653C20.4415 14.0653 23.2504 12.1797 23.2504 9.8621C23.2504 9.70182 23.2357 9.54379 23.2095 9.38802C23.4413 9.24435 23.6326 9.044 23.7655 8.80589C23.8984 8.56777 23.9688 8.29973 23.9694 8.02704ZM14.0116 9.11966C14.0116 8.99009 14.0372 8.8618 14.0868 8.74211C14.1364 8.62241 14.2092 8.51366 14.3008 8.42207C14.3924 8.33047 14.5012 8.25783 14.621 8.20828C14.7407 8.15873 14.869 8.13324 14.9986 8.13328C15.1281 8.13332 15.2564 8.15887 15.3761 8.20849C15.4958 8.25811 15.6046 8.33082 15.6962 8.42247C15.7878 8.51411 15.8604 8.6229 15.9099 8.74263C15.9595 8.86235 15.985 8.99066 15.9849 9.12023C15.9849 9.38191 15.8808 9.63284 15.6958 9.81783C15.5107 10.0028 15.2597 10.1067 14.998 10.1066C14.7363 10.1065 14.4854 10.0025 14.3004 9.81743C14.1154 9.63234 14.0115 9.38135 14.0116 9.11966ZM19.3139 11.7886C19.2846 11.8191 18.5765 12.5395 16.9765 12.5395C15.3681 12.5395 14.7247 11.8092 14.6985 11.7781C14.6578 11.7272 14.6384 11.6624 14.6444 11.5975C14.6504 11.5326 14.6813 11.4725 14.7307 11.4299C14.78 11.3872 14.844 11.3654 14.9091 11.3688C14.9742 11.3723 15.0355 11.4009 15.08 11.4486C15.0946 11.4644 15.6314 12.0352 16.9763 12.0352C18.3449 12.0352 18.9448 11.444 18.951 11.4384C18.9984 11.3951 19.0606 11.3714 19.1248 11.3723C19.189 11.3731 19.2505 11.3984 19.2967 11.443C19.343 11.4876 19.3705 11.5481 19.3737 11.6122C19.3769 11.6764 19.3555 11.7396 19.3139 11.7886ZM19.1178 10.1065C18.9882 10.1065 18.8599 10.0811 18.7402 10.0315C18.6205 9.98201 18.5117 9.90939 18.4201 9.81783C18.3284 9.72626 18.2557 9.61753 18.2061 9.49787C18.1565 9.3782 18.1309 9.24992 18.1308 9.12037C18.1308 8.99082 18.1562 8.86252 18.2058 8.74281C18.2553 8.6231 18.3279 8.51431 18.4195 8.42267C18.5111 8.33102 18.6198 8.25831 18.7394 8.20868C18.8591 8.15905 18.9874 8.13348 19.1169 8.13342C19.3786 8.13331 19.6296 8.23714 19.8146 8.42207C19.9997 8.607 20.1038 8.85788 20.1039 9.11952C20.104 9.38117 20.0002 9.63214 19.8152 9.81723C19.6303 10.0023 19.3794 10.1064 19.1178 10.1065Z" fill="black"/>
</g>
</g>
<defs>
<filter id="filter0_d_1_385" x="0" y="0" width="34" height="24" filterUnits="userSpaceOnUse" color-interpolation-filters="sRGB">
<feFlood flood-opacity="0" result="BackgroundImageFix"/>
<feColorMatrix in="SourceAlpha" type="matrix" values="0 0 0 0 0 0 0 0 0 0 0 0 0 0 0 0 0 0 127 0" result="hardAlpha"/>
<feOffset dy="4"/>
<feGaussianBlur stdDeviation="2"/>
<feComposite in2="hardAlpha" operator="out"/>
<feColorMatrix type="matrix" values="0 0 0 0 0 0 0 0 0 0 0 0 0 0 0 0 0 0 0.25 0"/>
<feBlend mode="normal" in2="BackgroundImageFix" result="effect1_dropShadow_1_385"/>
<feBlend mode="normal" in="SourceGraphic" in2="effect1_dropShadow_1_385" result="shape"/>
</filter>
<clipPath id="clip0_1_385">
<rect x="4" width="26" height="16" rx="8" fill="white"/>
</clipPath>
</defs>
</svg>
