<svg width="31" height="27" viewBox="0 0 31 27" fill="none" xmlns="http://www.w3.org/2000/svg">
<g clip-path="url(#clip0_1_357)">
<path d="M30.1789 21.3L25.1709 26.632C25.063 26.749 24.9318 26.8422 24.7858 26.9056C24.6398 26.969 24.4821 27.0011 24.3229 27H0.582946C0.469788 26.9994 0.359187 26.9663 0.264329 26.9046C0.169471 26.8429 0.0943587 26.7552 0.0479456 26.652C0.00240225 26.5491 -0.0115203 26.4349 0.00794563 26.324C0.0278294 26.2126 0.0791846 26.1092 0.155946 26.026L5.15795 20.694C5.2658 20.5769 5.39696 20.4837 5.54301 20.4203C5.68905 20.3569 5.84675 20.3248 6.00595 20.326H29.7459C29.8597 20.3229 29.9719 20.3537 30.0681 20.4145C30.1643 20.4753 30.2403 20.5633 30.2864 20.6674C30.3325 20.7715 30.3466 20.8869 30.3269 20.999C30.3073 21.1111 30.2547 21.2149 30.1759 21.297L30.1789 21.3ZM25.1699 10.56C25.0602 10.4453 24.9287 10.3537 24.7831 10.2905C24.6374 10.2273 24.4807 10.1938 24.3219 10.192H0.582946C0.469678 10.1927 0.358999 10.226 0.26413 10.2879C0.169261 10.3498 0.0942115 10.4376 0.0479456 10.541C0.00246087 10.644 -0.0114595 10.7582 0.00794563 10.869C0.0279456 10.981 0.0789456 11.082 0.155946 11.166L5.15795 16.501C5.26495 16.616 5.39795 16.709 5.54195 16.771C5.68895 16.835 5.84495 16.866 6.00595 16.869H29.7459C29.8585 16.8693 29.9687 16.8365 30.0628 16.7746C30.1568 16.7127 30.2306 16.6245 30.2749 16.521C30.3206 16.4182 30.3347 16.304 30.3154 16.1932C30.2962 16.0823 30.2445 15.9796 30.1669 15.898L25.1669 10.563L25.1699 10.56ZM0.581946 6.73003H24.3219C24.4815 6.72919 24.6392 6.69656 24.7859 6.63403C24.9329 6.57003 25.0629 6.48003 25.1699 6.36203L30.1799 1.03003C30.2378 0.968269 30.2813 0.894585 30.3076 0.814167C30.3339 0.73375 30.3422 0.648552 30.332 0.56457C30.3218 0.480588 30.2933 0.399861 30.2486 0.328069C30.2038 0.256278 30.1439 0.195166 30.0729 0.149035C29.9767 0.0873863 29.8642 0.0560342 29.7499 0.0590348H6.00595C5.84795 0.0590348 5.68895 0.0930348 5.54195 0.154035C5.39613 0.216937 5.26526 0.309974 5.15795 0.427035L0.155946 5.75903C0.0794256 5.84161 0.0284953 5.9446 0.0093262 6.05553C-0.00984286 6.16646 0.00357214 6.28057 0.0479456 6.38403C0.094288 6.48708 0.169246 6.57466 0.263909 6.63635C0.358572 6.69804 0.468958 6.73125 0.581946 6.73203V6.73003Z" fill="url(#paint0_linear_1_357)"/>
</g>
<defs>
<linearGradient id="paint0_linear_1_357" x1="2.56095" y1="27.642" x2="27.2579" y2="-0.396965" gradientUnits="userSpaceOnUse">
<stop offset="0.08" stop-color="#9945FF"/>
<stop offset="0.3" stop-color="#8752F3"/>
<stop offset="0.5" stop-color="#5497D5"/>
<stop offset="0.6" stop-color="#43B4CA"/>
<stop offset="0.72" stop-color="#28E0B9"/>
<stop offset="0.97" stop-color="#19FB9B"/>
</linearGradient>
<clipPath id="clip0_1_357">
<rect width="31" height="27" fill="white"/>
</clipPath>
</defs>
</svg>
