<svg width="26" height="16" viewBox="0 0 26 16" fill="none" xmlns="http://www.w3.org/2000/svg">
<rect width="26" height="16" fill="#848895"/>
<path d="M20.5334 4.86671C20.5334 4.73337 20.3334 3.66671 19.8667 3.20004C19.2667 2.53337 18.6 2.46671 18.2667 2.46671H18.2C16.1334 2.33337 13.0667 2.33337 13 2.33337C13 2.33337 9.86671 2.33337 7.80004 2.46671H7.73337C7.40004 2.46671 6.73337 2.53337 6.13337 3.20004C5.66671 3.73337 5.46671 4.80004 5.46671 4.93337C5.46671 5.00004 5.33337 6.20004 5.33337 7.46671V8.60004C5.33337 9.86671 5.46671 11.0667 5.46671 11.1334C5.46671 11.2667 5.66671 12.3334 6.13337 12.8C6.66671 13.4 7.33337 13.4667 7.73337 13.5334H7.93337C9.13337 13.6667 12.8 13.6667 12.9334 13.6667C12.9334 13.6667 16.0667 13.6667 18.1334 13.5334H18.2C18.5334 13.4667 19.2 13.4 19.8 12.8C20.2667 12.2667 20.4667 11.2 20.4667 11.0667C20.4667 11 20.6 9.80004 20.6 8.53337V7.40004C20.6667 6.20004 20.5334 4.93337 20.5334 4.86671ZM15.6 8.13337L11.6 10.2667C11.5334 10.2667 11.5334 10.3334 11.4667 10.3334C11.4 10.3334 11.3334 10.3334 11.3334 10.2667C11.2667 10.2 11.2 10.1334 11.2 10V5.66671C11.2 5.53337 11.2667 5.46671 11.3334 5.40004C11.4 5.33337 11.5334 5.33337 11.6667 5.40004L15.6667 7.53337C15.8 7.60004 15.8667 7.66671 15.8667 7.80004C15.8667 7.93337 15.7334 8.06671 15.6 8.13337Z" fill="black"/>
</svg>
