<svg width="26" height="16" viewBox="0 0 26 16" fill="none" xmlns="http://www.w3.org/2000/svg">
<rect width="26" height="16" fill="#848895"/>
<g clip-path="url(#clip0_1_372)">
<path fill-rule="evenodd" clip-rule="evenodd" d="M13 0C8.58233 0 5 3.67233 5 8.20233C5 11.8267 7.29233 14.9013 10.471 15.9857C10.871 16.0617 11.0177 15.808 11.0177 15.5913C11.0177 15.3957 11.01 14.7497 11.0067 14.0643C8.781 14.5603 8.31133 13.0963 8.31133 13.0963C7.94733 12.1483 7.423 11.8963 7.423 11.8963C6.69733 11.387 7.478 11.3977 7.478 11.3977C8.28133 11.4553 8.70433 12.2427 8.70433 12.2427C9.41767 13.4967 10.5757 13.1343 11.0323 12.9247C11.104 12.3947 11.3113 12.0327 11.54 11.828C9.76333 11.6203 7.89533 10.917 7.89533 7.774C7.89533 6.87867 8.20767 6.14667 8.71967 5.57233C8.63633 5.36567 8.36267 4.53133 8.797 3.40167C8.797 3.40167 9.469 3.18133 10.9977 4.24233C11.6357 4.06067 12.3203 3.96967 13 3.96633C13.68 3.96967 14.365 4.06067 15.0043 4.24233C16.531 3.18133 17.202 3.40167 17.202 3.40167C17.6373 4.53167 17.3633 5.36567 17.2803 5.57233C17.7937 6.14667 18.1037 6.87867 18.1037 7.774C18.1037 10.9247 16.2323 11.6183 14.4507 11.8213C14.7377 12.076 14.9933 12.575 14.9933 13.3403C14.9933 14.4377 14.9843 15.321 14.9843 15.5913C14.9843 15.8097 15.1283 16.0653 15.5337 15.9847C18.7107 14.899 21 11.8253 21 8.20233C21 3.67233 17.4183 0 13 0Z" fill="black"/>
<path fill-rule="evenodd" clip-rule="evenodd" d="M8.03005 11.7771C8.01239 11.8181 7.95005 11.8301 7.89305 11.8021C7.83505 11.7754 7.80239 11.7197 7.82106 11.6787C7.83839 11.6367 7.90105 11.6254 7.95905 11.6531C8.01705 11.6801 8.05005 11.7364 8.03005 11.7771ZM8.35406 12.1477C8.31606 12.1837 8.24139 12.1671 8.19072 12.1097C8.13839 12.0524 8.12872 11.9761 8.16739 11.9394C8.20672 11.9027 8.27906 11.9201 8.33139 11.9771C8.38372 12.0351 8.39406 12.1111 8.35406 12.1477ZM8.66939 12.6201C8.62072 12.6551 8.54039 12.6224 8.49072 12.5494C8.44172 12.4761 8.44172 12.3887 8.49205 12.3537C8.54172 12.3187 8.62039 12.3504 8.67072 12.4227C8.71972 12.4967 8.71972 12.5844 8.66939 12.6201ZM9.10172 13.0767C9.05772 13.1261 8.96439 13.1127 8.89605 13.0451C8.82605 12.9791 8.80672 12.8851 8.85072 12.8354C8.89505 12.7857 8.98906 12.7997 9.05772 12.8667C9.12739 12.9327 9.14839 13.0274 9.10172 13.0767ZM9.69772 13.3414C9.67839 13.4057 9.58839 13.4347 9.49772 13.4077C9.40772 13.3794 9.34839 13.3044 9.36639 13.2394C9.38539 13.1747 9.47572 13.1441 9.56705 13.1734C9.65705 13.2014 9.71672 13.2761 9.69772 13.3414ZM10.3527 13.3907C10.3547 13.4584 10.2781 13.5141 10.1827 13.5154C10.0871 13.5177 10.0097 13.4631 10.0087 13.3964C10.0087 13.3281 10.0841 13.2727 10.1794 13.2711C10.2747 13.2691 10.3527 13.3234 10.3527 13.3907ZM10.9617 13.2844C10.9731 13.3504 10.9071 13.4181 10.8127 13.4361C10.7197 13.4534 10.6337 13.4127 10.6221 13.3474C10.6104 13.2797 10.6777 13.2117 10.7704 13.1941C10.8651 13.1774 10.9497 13.2177 10.9617 13.2844Z" fill="black"/>
</g>
<defs>
<clipPath id="clip0_1_372">
<rect width="16" height="16" fill="white" transform="translate(5)"/>
</clipPath>
</defs>
</svg>
