<svg width="25" height="25" viewBox="0 0 25 25" fill="none" xmlns="http://www.w3.org/2000/svg">
<g clip-path="url(#clip0_0_737)">
<path fill-rule="evenodd" clip-rule="evenodd" d="M23.2238 20.7622C22.9998 21.3311 22.4831 22.132 21.7502 22.6963C21.327 23.0222 20.8219 23.3338 20.1281 23.5393C19.3884 23.7585 18.4774 23.8326 17.3434 23.8326H6.97551C5.84168 23.8326 4.93063 23.7585 4.19089 23.5393C3.49702 23.3338 2.99197 23.0222 2.56876 22.6963C1.83598 22.132 1.31911 21.3312 1.09514 20.7622C0.644105 19.616 0.639526 18.3155 0.639526 17.4965V7.12846C0.639526 6.30951 0.644105 5.00895 1.09524 3.86277C1.3192 3.29389 1.83598 2.4929 2.56885 1.92869C2.99197 1.60281 3.49712 1.29132 4.19089 1.08576C4.93063 0.866555 5.84168 0.79248 6.97551 0.79248H17.3435C18.4774 0.79248 19.3884 0.866555 20.1282 1.08576C20.822 1.29132 21.327 1.6029 21.7503 1.92869C22.4831 2.49299 22.9999 3.29389 23.2239 3.86277C23.6749 5.00895 23.6795 6.30951 23.6795 7.12846V17.4964C23.6795 18.3155 23.6749 19.616 23.2238 20.7622Z" fill="url(#paint0_linear_0_737)"/>
<path d="M13.8297 14.0356C13.4841 13.6709 12.8768 13.437 12.1599 13.437C11.4429 13.437 10.8356 13.6709 10.49 14.0356C10.3096 14.2259 10.2141 14.421 10.1841 14.699C10.126 15.2374 10.1586 15.7008 10.2217 16.4419C10.2818 17.1481 10.3959 18.0896 10.5448 19.0487C10.6507 19.7312 10.7368 20.0996 10.8152 20.3635C10.9423 20.791 11.4172 21.1648 12.1599 21.1648C12.9025 21.1648 13.3774 20.7909 13.5045 20.3635C13.583 20.0997 13.6691 19.7313 13.775 19.0487C13.924 18.0896 14.0379 17.1482 14.098 16.4419C14.161 15.7008 14.1937 15.2373 14.1355 14.699C14.1056 14.421 14.0102 14.226 13.8297 14.0356ZM10.2761 10.7875C10.2761 11.829 11.1204 12.6731 12.1618 12.6731C13.2031 12.6731 14.0473 11.829 14.0473 10.7875C14.0473 9.74617 13.2031 8.90187 12.1618 8.90187C11.1204 8.90187 10.2761 9.74617 10.2761 10.7875ZM12.1384 3.3461C7.7283 3.35864 4.11487 6.93628 4.0602 11.3459C4.01598 14.9181 6.29617 17.9738 9.48028 19.0937C9.55764 19.121 9.63611 19.0568 9.62384 18.9757C9.58218 18.6985 9.54281 18.4197 9.50655 18.1456C9.49373 18.0487 9.43202 17.9652 9.34247 17.9262C6.82586 16.8267 5.0684 14.3025 5.0966 11.379C5.1336 7.54197 8.26661 4.414 12.1036 4.38296C16.026 4.35128 19.2271 7.53291 19.2271 11.4482C19.2271 14.3426 17.4774 16.8356 14.9802 17.9263C14.8909 17.9654 14.8295 18.0492 14.8168 18.1459C14.7806 18.4199 14.7412 18.6985 14.6995 18.9756C14.6873 19.0566 14.7658 19.1209 14.8431 19.0936C17.9968 17.9843 20.2637 14.9763 20.2637 11.4482C20.2639 6.97291 16.6166 3.33346 12.1384 3.3461ZM11.992 7.06328C14.4919 6.96641 16.5566 8.9721 16.5566 11.4509C16.5566 12.7115 16.0224 13.8497 15.1687 14.6512C15.0964 14.7192 15.0574 14.8157 15.0631 14.9147C15.0801 15.2164 15.0738 15.5093 15.0538 15.8402C15.0484 15.9283 15.1473 15.9846 15.2201 15.9348C16.6518 14.9566 17.5933 13.3117 17.5933 11.4508C17.5933 8.38674 15.0411 5.90748 11.951 6.02725C9.07914 6.13849 6.77504 8.50631 6.73832 11.38C6.71415 13.2702 7.66147 14.9445 9.11137 15.9351C9.18415 15.9848 9.28277 15.9283 9.27746 15.8404C9.25732 15.5093 9.25118 15.2163 9.26813 14.9147C9.27362 14.8158 9.23479 14.7194 9.16246 14.6514C8.28217 13.8249 7.74158 12.6405 7.77601 11.3331C7.83662 9.03198 9.69178 7.15238 11.992 7.06328Z" fill="white"/>
</g>
<defs>
<linearGradient id="paint0_linear_0_737" x1="12.1595" y1="0.792481" x2="12.1595" y2="23.8325" gradientUnits="userSpaceOnUse">
<stop stop-color="#F452FF"/>
<stop offset="1" stop-color="#832BC1"/>
</linearGradient>
<clipPath id="clip0_0_737">
<rect width="24" height="24" fill="white" transform="translate(0.159546 0.3125)"/>
</clipPath>
</defs>
</svg>
